<svg width="72" height="91" fill="none" xmlns="http://www.w3.org/2000/svg"><path d="M42.492 16.072C21.199-7.797.528 19.184 7.967 33.177c3.004 5.649 7.266 8.241 12.6 9.56 8.266 2.042 10.51-.186 13.646-1.74 3.136-1.553 24.456-22.718-5.69-34.009" stroke="#00C7D1" stroke-width="2" stroke-linecap="round" stroke-linejoin="round"/><path d="M28.629 43.98c29.258-12.925 9.936-40.888-5.666-38.11-6.298 1.122-10.075 4.381-12.969 9.051-4.485 7.238-3.054 10.059-2.54 13.52.515 3.463 14.102 30.256 34.112 5.04" stroke="#00C7D1" stroke-width="2" stroke-linecap="round" stroke-linejoin="round"/><path d="M44.4 75.101s-1.572-13.826-9.407-28.655c-.382-.723-.417-.713-.122.05.32.822.758 2.027 1.358 3.79 1.884 5.532 8.17 24.816 8.17 24.816" stroke="#00C7D1" stroke-width="2" stroke-linecap="round"/></svg>