<svg width="75" height="101" fill="none" xmlns="http://www.w3.org/2000/svg"><path d="M6.615 77.386s12.486-29.373 18.52-69.224c.186-1.235-1.298-1.511-1.584-.295a4781.874 4781.874 0 01-6.442 27.117C13.391 50.35 6.615 77.388 6.615 77.388m22.212 3.532S40.11 51.065 44.52 11.001c.137-1.241-1.357-1.457-1.593-.23a4789.465 4789.465 0 01-5.336 27.356c-3.09 15.504-8.763 42.795-8.763 42.795m19.071 2.662s12.944-26.81 20.977-64.243c.266-1.238-1.096-1.544-1.42-.32-2.115 7.986-4.549 16.976-6.503 23.64-4.45 15.171-13.054 40.925-13.054 40.925M3 90.216s.374-.244.858-1.507c.227-.593-.134-2.54.728-2.99m21.15 8.167s-.677-.474-.804-1.872c-.06-.656 2.322-2.002.672-3.004m19.646 7.691s-.629-.531-.63-1.934c0-.658 2.48-1.792.935-2.932" stroke="#00C7D1" stroke-width="4" stroke-linecap="round"/></svg>