<svg width="98" height="103" fill="none" xmlns="http://www.w3.org/2000/svg"><path d="M11.239 68.213S31.21 43.318 47.809 6.59c.515-1.139-.84-1.806-1.443-.713-4.296 7.767-9.62 17.37-13.544 24.36-7.74 13.785-21.584 37.978-21.584 37.978m20.425 9.415s18.945-25.686 34.038-63.06c.468-1.158-.912-1.77-1.471-.653-3.977 7.936-8.906 17.746-12.544 24.89-7.173 14.088-20.023 38.824-20.023 38.824m17.639 7.727s19.72-22.303 37.589-56.163c.59-1.12-.637-1.784-1.28-.693-4.199 7.115-8.976 15.11-12.662 20.997C64.558 62.898 49.3 85.359 49.3 85.359M4.284 79.584s.425-.133 1.234-1.218c.379-.51.558-2.482 1.51-2.681m18.149 13.589s-.523-.64-.268-2.02c.12-.648 2.778-1.299 1.46-2.71m16.83 12.723s-.461-.681-.082-2.032c.178-.634 2.872-1.054 1.694-2.57" stroke="#00C7D1" stroke-width="3" stroke-linecap="round"/></svg>